<?xml version="1.0" encoding="utf-8"?>
<!-- Generator: Adobe Illustrator 23.0.0, SVG Export Plug-In . SVG Version: 6.00 Build 0)  -->
<svg version="1.1" xmlns="http://www.w3.org/2000/svg" xmlns:xlink="http://www.w3.org/1999/xlink" x="0px" y="0px"
	 viewBox="0 0 64 64" style="enable-background:new 0 0 64 64;" xml:space="preserve">
<style type="text/css">
	.st0{fill:none;stroke:#949494;stroke-width:3.5;stroke-linecap:round;stroke-miterlimit:10;}
	.st1{fill:none;stroke:#949494;stroke-width:3.5;stroke-linecap:round;stroke-linejoin:round;stroke-miterlimit:10;}
	.st2{fill:#949494;}
</style>
<g id="Layer_1">
</g>
<g id="Layer_2">
	<path class="st0" d="M38.7,59.5H7.3c-2,0-3.6-1.6-3.6-3.6V9.8c0-2,1.6-3.6,3.6-3.6h46.2c2,0,3.6,1.6,3.6,3.6v26.9"/>
	<line class="st0" x1="15.2" y1="2.7" x2="15.2" y2="10.9"/>
	<line class="st0" x1="29.3" y1="2.7" x2="29.3" y2="10.9"/>
	<line class="st0" x1="43.5" y1="2.7" x2="43.5" y2="10.9"/>
	<circle class="st0" cx="50.5" cy="51" r="10.8"/>
	<polyline class="st1" points="49.4,45.5 49.4,52.5 56,52.5 	"/>
</g>
<g id="Layer_3_1_">
	<circle class="st2" cx="14.7" cy="24.7" r="3.5"/>
	<circle class="st2" cx="29.3" cy="24.7" r="3.5"/>
	<circle class="st2" cx="14.7" cy="37.5" r="3.5"/>
	<circle class="st2" cx="29.3" cy="37.5" r="3.5"/>
	<circle class="st2" cx="14.7" cy="49" r="3.5"/>
	<circle class="st2" cx="29.3" cy="49" r="3.5"/>
	<circle class="st2" cx="43.5" cy="24.7" r="3.5"/>
</g>
</svg>
